<?xml version="1.0" encoding="utf-8"?>
<!-- Generator: Adobe Illustrator 17.1.0, SVG Export Plug-In . SVG Version: 6.00 Build 0)  -->
<!DOCTYPE svg PUBLIC "-//W3C//DTD SVG 1.1//EN" "http://www.w3.org/Graphics/SVG/1.1/DTD/svg11.dtd">
<svg version="1.1" id="Layer_1" xmlns="http://www.w3.org/2000/svg" xmlns:xlink="http://www.w3.org/1999/xlink" x="0px" y="0px"
	 width="128px" height="64px" viewBox="0 0 128 64" enable-background="new 0 0 128 64" xml:space="preserve">
<path fill="#242E30" d="M24,11c-0.6,0.3-1.2,0.4-1.9,0.5c0.7-0.4,1.2-1,1.4-1.8c-0.6,0.4-1.3,0.6-2.1,0.8c-0.6-0.6-1.5-1-2.4-1
	c-1.8,0-3.3,1.5-3.3,3.3c0,0.3,0,0.5,0.1,0.7c-2.7-0.1-5.1-1.4-6.8-3.4c-0.3,0.5-0.4,1-0.4,1.7c0,1.1,0.6,2.1,1.5,2.7
	c-0.5,0-1-0.2-1.5-0.4l0,0c0,1.6,1.1,2.9,2.6,3.2c-0.4,0.3-1,0.3-1.5,0c0.4,1.3,1.6,2.3,3.1,2.3c-1.1,0.9-2.5,1.4-4.1,1.4
	c-0.3,0-0.5,0-0.8,0c1.5,0.9,3.2,1.5,5,1.5c6,0,9.3-5,9.3-9.3c0-0.1,0-0.3,0-0.4C23,12.3,23.6,11.7,24,11z"/>
<path fill="#242E30" d="M78,16v8h3v-8h2l1-3h-3c0,0,0-0.5,0-1.3c0-0.3,0.2-0.7,0.7-0.7c1,0,2.9,0,2.3,0V8c0,0-1.6,0-3.3,0
	C79,8,78,9.3,78,10.8s0,2.3,0,2.3h-2v3h2V16z"/>  <!-- Third icon (Facebook)-->
<path transform="translate(37,5) scale(0.4)" d="M 46.773438 35.078125 C 40.96875 34.121094 38.316406 28.109375 38.230469 27.914063 C 38.21875 27.878906 38.191406 27.816406 38.175781 27.78125 C 38 27.429688 37.824219 26.933594 37.972656 26.582031 C 38.226563 25.980469 39.433594 25.597656 40.15625 25.367188 C 40.410156 25.285156 40.652344 25.210938 40.839844 25.136719 C 42.59375 24.441406 43.46875 23.535156 43.449219 22.433594 C 43.433594 21.546875 42.753906 20.734375 41.753906 20.382813 C 41.40625 20.234375 41.007813 20.160156 40.605469 20.160156 C 40.332031 20.160156 39.917969 20.199219 39.519531 20.382813 C 38.851563 20.695313 38.265625 20.863281 37.847656 20.882813 C 37.757813 20.878906 37.679688 20.871094 37.613281 20.859375 L 37.65625 20.171875 C 37.851563 17.0625 38.097656 13.1875 37.046875 10.832031 C 33.945313 3.890625 27.375 3.351563 25.433594 3.351563 L 24.550781 3.359375 C 22.613281 3.359375 16.054688 3.898438 12.960938 10.835938 C 11.910156 13.191406 12.152344 17.0625 12.351563 20.175781 L 12.359375 20.292969 C 12.371094 20.484375 12.382813 20.675781 12.394531 20.859375 C 11.960938 20.9375 11.113281 20.792969 10.234375 20.382813 C 9.039063 19.824219 6.886719 20.5625 6.589844 22.125 C 6.457031 22.816406 6.617188 24.128906 9.164063 25.132813 C 9.355469 25.210938 9.59375 25.285156 9.851563 25.367188 C 10.570313 25.597656 11.777344 25.976563 12.03125 26.582031 C 12.179688 26.933594 12.003906 27.429688 11.796875 27.855469 C 11.6875 28.109375 9.050781 34.121094 3.234375 35.078125 C 2.492188 35.199219 1.964844 35.855469 2.003906 36.613281 C 2.015625 36.8125 2.066406 37.011719 2.148438 37.207031 C 2.675781 38.445313 4.59375 39.296875 8.171875 39.878906 C 8.234375 40.089844 8.304688 40.402344 8.34375 40.574219 C 8.417969 40.929688 8.5 41.289063 8.609375 41.664063 C 8.714844 42.019531 9.078125 42.84375 10.210938 42.84375 C 10.554688 42.84375 10.929688 42.769531 11.332031 42.691406 C 11.925781 42.574219 12.667969 42.429688 13.621094 42.429688 C 14.152344 42.429688 14.699219 42.476563 15.25 42.566406 C 16.265625 42.734375 17.183594 43.386719 18.25 44.136719 C 19.914063 45.316406 21.800781 46.648438 24.726563 46.648438 C 24.804688 46.648438 24.882813 46.644531 24.957031 46.640625 C 25.0625 46.644531 25.171875 46.648438 25.28125 46.648438 C 28.207031 46.648438 30.09375 45.3125 31.761719 44.136719 C 32.777344 43.414063 33.738281 42.738281 34.757813 42.566406 C 35.308594 42.476563 35.855469 42.429688 36.386719 42.429688 C 37.304688 42.429688 38.03125 42.546875 38.679688 42.675781 C 39.140625 42.765625 39.507813 42.808594 39.847656 42.808594 C 40.605469 42.808594 41.1875 42.375 41.398438 41.648438 C 41.507813 41.28125 41.585938 40.925781 41.664063 40.566406 C 41.695313 40.433594 41.769531 40.097656 41.835938 39.875 C 45.414063 39.292969 47.332031 38.441406 47.855469 37.214844 C 47.941406 37.019531 47.988281 36.816406 48.003906 36.605469 C 48.042969 35.859375 47.515625 35.203125 46.773438 35.078125 Z"/>
<path transform= "translate(102,7) scale(1.2)" d="M8 0C5.829 0 5.556.01 4.703.048 3.85.088 3.269.222 2.76.42a3.917 3.917 0 0 0-1.417.923A3.927 3.927 0 0 0 .42 2.76C.222 3.268.087 3.85.048 4.7.01 5.555 0 5.827 0 8.001c0 2.172.01 2.444.048 3.297.04.852.174 1.433.372 1.942.205.526.478.972.923 1.417.444.445.89.719 1.416.923.51.198 1.09.333 1.942.372C5.555 15.99 5.827 16 8 16s2.444-.01 3.298-.048c.851-.04 1.434-.174 1.943-.372a3.916 3.916 0 0 0 1.416-.923c.445-.445.718-.891.923-1.417.197-.509.332-1.09.372-1.942C15.99 10.445 16 10.173 16 8s-.01-2.445-.048-3.299c-.04-.851-.175-1.433-.372-1.941a3.926 3.926 0 0 0-.923-1.417A3.911 3.911 0 0 0 13.24.42c-.51-.198-1.092-.333-1.943-.372C10.443.01 10.172 0 7.998 0h.003zm-.717 1.442h.718c2.136 0 2.389.007 3.232.046.78.035 1.204.166 1.486.275.373.145.64.319.92.599.28.28.453.546.598.92.11.281.24.705.275 1.485.039.843.047 1.096.047 3.231s-.008 2.389-.047 3.232c-.035.78-.166 1.203-.275 1.485a2.47 2.47 0 0 1-.599.919c-.28.28-.546.453-.92.598-.28.11-.704.24-1.485.276-.843.038-1.096.047-3.232.047s-2.39-.009-3.233-.047c-.78-.036-1.203-.166-1.485-.276a2.478 2.478 0 0 1-.92-.598 2.48 2.48 0 0 1-.6-.92c-.109-.281-.24-.705-.275-1.485-.038-.843-.046-1.096-.046-3.233 0-2.136.008-2.388.046-3.231.036-.78.166-1.204.276-1.486.145-.373.319-.64.599-.92.28-.28.546-.453.92-.598.282-.11.705-.24 1.485-.276.738-.034 1.024-.044 2.515-.045v.002zm4.988 1.328a.96.96 0 1 0 0 1.92.96.96 0 0 0 0-1.92zm-4.27 1.122a4.109 4.109 0 1 0 0 8.217 4.109 4.109 0 0 0 0-8.217zm0 1.441a2.667 2.667 0 1 1 0 5.334 2.667 2.667 0 0 1 0-5.334z"/>
<!-- <path transform="translate(37,5)" d="M10 9.333l5.333 2.667L10 14.667V9.333zM22 7.782C22 7.21 21.603 6.733 21.02 6.563 19.303 6 12 6 12 6s-7.303 0-9.02.563C1.397 6.733 1 7.21 1 7.782v8.436c0 .572.397 1.049.98 1.219 1.717.563 9.02.563 9.02.563s7.303 0 9.02-.563c.583-.17.98-.647.98-1.219V7.782z"/> -->
<path fill="#FFFFFF" d="M24,43c-0.6,0.3-1.2,0.4-1.9,0.5c0.7-0.4,1.2-1,1.4-1.8c-0.6,0.4-1.3,0.6-2.1,0.8c-0.6-0.6-1.5-1-2.4-1
	c-1.8,0-3.3,1.5-3.3,3.3c0,0.3,0,0.5,0.1,0.7c-2.7-0.1-5.1-1.4-6.8-3.4c-0.3,0.5-0.4,1-0.4,1.7c0,1.1,0.6,2.1,1.5,2.7
	c-0.5,0-1-0.2-1.5-0.4l0,0c0,1.6,1.1,2.9,2.6,3.2c-0.4,0.3-1,0.3-1.5,0c0.4,1.3,1.6,2.3,3.1,2.3c-1.1,0.9-2.5,1.4-4.1,1.4
	c-0.3,0-0.5,0-0.8,0c1.5,0.9,3.2,1.5,5,1.5c6,0,9.3-5,9.3-9.3c0-0.1,0-0.3,0-0.4C23,44.3,23.6,43.7,24,43z"/>
<path fill="#FFFFFF" d="M78,48v8h3v-8h2l1-3h-3c0,0,0-0.5,0-1.3c0-0.3,0.2-0.7,0.7-0.7c1,0,2.9,0,2.3,0v-3c0,0-1.6,0-3.3,0
	C79,40,78,41.3,78,42.8s0,2.3,0,2.3h-2v3L78,48L78,48z"/> 
<path fill="#FFFFFF" d="M112,56c-4.4,0-8-3.6-8-8s3.6-8,8-8s8,3.6,8,8S116.4,56,112,56z M118.7,49.1c-0.2-0.1-2.1-0.6-4.3-0.3
	c0.9,2.5,1.1,3.7,1.3,4.9C117.4,52.6,118.4,51,118.7,49.1z M114.7,54.3c-0.2-1.2-0.5-2.7-1.5-5.2l0,0c-3.9,1.3-5.2,4-5.4,4.3
	C109.4,54.7,112,55.2,114.7,54.3z M106.9,52.6c1.6-3.1,5.8-4.6,5.9-4.6c-0.2-0.4-0.4-0.8-0.6-1.2c-3.4,1-6.7,1-7,1
	C105.1,49.7,105.8,51.4,106.9,52.6z M105.3,46.6c0.3,0,3.1,0,6.3-0.8c-1.1-2-2.3-3.7-2.5-4C107.2,42.7,105.8,44.5,105.3,46.6z
	 M110.4,41.4c0.2,0.3,1.4,1.9,2.5,4c2.4-0.9,3.5-2.3,3.6-2.5C115.3,41.8,113,40.9,110.4,41.4z M117.3,43.7c-0.1,0.2-1.3,1.7-3.8,2.7
	c0.2,0.3,0.4,0.9,0.6,1.4c2.3-0.3,4,0,4.8,0.2C118.9,46.2,118.2,44.8,117.3,43.7z"/>
<path fill="#FFFFFF" d="M50.8,49.1c-0.6,0-1.1,0.7-1.1,1.6c0,0.9,0.5,1.6,1.1,1.6s1.1-0.7,1.1-1.6C51.9,49.8,51.4,49.1,50.8,49.1z
	 M54.7,45.1c0.1-0.3,0.1-2.1-0.6-3.8c0,0-1.6,0.2-4,1.8c-0.5-0.1-1.3-0.2-2.2-0.2s-1.7,0.1-2.2,0.2c-2.4-1.6-4-1.8-4-1.8
	C41,43,41,44.8,41.1,45.1C40.5,45.9,40,47,40,48.4c0,6.2,5.2,6.3,6.5,6.3c0.3,0,0.9,0,1.5,0s1.2,0,1.5,0c1.3,0,6.5-0.1,6.5-6.3
	C56,47,55.5,45.9,54.7,45.1z M48,54L48,54c-3.3,0-5.9-0.4-5.9-3.6c0-0.8,0.3-1.5,0.9-2.1c1.1-1,2.9-0.5,4.9-0.5l0,0l0,0
	c2.1,0,3.9-0.5,4.9,0.5c0.6,0.6,0.9,1.3,0.9,2.1C53.9,53.6,51.3,54,48,54z M45.2,49.1c-0.6,0-1.1,0.7-1.1,1.6c0,0.9,0.5,1.6,1.1,1.6
	s1.1-0.7,1.1-1.6C46.4,49.8,45.9,49.1,45.2,49.1z"/>
</svg>
